# xmcd
#
# Track frame offsets:
# 150
# 6959
# 15207
# 25912
# 38106
# 56822
# 70815
# 83397
# 95809
# 109910
# 135280
# 151373
# 158460
# 167521
# 173176
#
# Disc length: 2465 seconds
#
#
# Revision: 0
# Processed by: cddbd v1.5.2PL0 Copyright (c) Steve Scherf et al.
# Submitted via: FreeRIP 2.944 
#
DISCID=a8099f0f
DTITLE=100 Parea  - Amar Seus Defeitos
DYEAR=2010
DGENRE=Country
TTITLE0=100 Parea - Cocha de Retalho
TTITLE1=100 Parea - Chalana
TTITLE2=100 Parea - Ama Seus Defeitos
TTITLE3=100 Parea - Cancao do Vaqueiro
TTITLE4=100 Parea - Vaqueiro Novo
TTITLE5=100 Parea - Saco de estopa
TTITLE6=100 Parea - Boi de Carro
TTITLE7=100 Parea - Mulher de Cachaceiro
TTITLE8=100 Parea - Saudade de Meu Bem
TTITLE9=100 Parea - Vaqueiro Velho
TTITLE10=100 Parea - Filho Adotivo
TTITLE11=100 Parea - Fio de Cabelo
TTITLE12=100 Parea - Vida Margurada
TTITLE13=100 Parea - O Caipira
TTITLE14=100 Parea - Churrasco com Chimarrao
EXTD=
EXTT0=
EXTT1=
EXTT2=
EXTT3=
EXTT4=
EXTT5=
EXTT6=
EXTT7=
EXTT8=
EXTT9=
EXTT10=
EXTT11=
EXTT12=
EXTT13=
EXTT14=
PLAYORDER=
